<svg width="512" height="512" viewBox="0 0 512 512" fill="none" xmlns="http://www.w3.org/2000/svg">
  <defs>
    <linearGradient id="gradient" x1="0%" y1="0%" x2="100%" y2="100%">
      <stop offset="0%" style="stop-color:#ec4899;stop-opacity:1" />
      <stop offset="100%" style="stop-color:#9333ea;stop-opacity:1" />
    </linearGradient>
  </defs>
  
  <!-- Background Circle -->
  <circle cx="256" cy="256" r="240" fill="url(#gradient)"/>
  
  <!-- Code Brackets -->
  <path d="M160 180 L120 256 L160 332" stroke="white" stroke-width="24" stroke-linecap="round" stroke-linejoin="round" fill="none"/>
  <path d="M352 180 L392 256 L352 332" stroke="white" stroke-width="24" stroke-linecap="round" stroke-linejoin="round" fill="none"/>
  
  <!-- Heart Symbol in Center -->
  <path d="M256 300 C256 300 200 260 200 220 C200 195 215 180 235 180 C245 180 256 190 256 190 C256 190 267 180 277 180 C297 180 312 195 312 220 C312 260 256 300 256 300 Z" fill="white"/>
  
  <!-- Forward Slash -->
  <line x1="230" y1="340" x2="282" y2="172" stroke="white" stroke-width="20" stroke-linecap="round"/>
</svg>
